<mxfile host="app.diagrams.net" agent="Mozilla/5.0 (Windows NT 10.0; Win64; x64) AppleWebKit/537.36 (KHTML, like Gecko) Chrome/133.0.0.0 Safari/537.36" version="26.0.16">
  <diagram name="Page-1" id="08ooQbiastwGk7vqOVe7">
    <mxGraphModel dx="3123" dy="1523" grid="1" gridSize="10" guides="1" tooltips="1" connect="1" arrows="1" fold="1" page="1" pageScale="1" pageWidth="850" pageHeight="1100" math="0" shadow="0">
      <root>
        <mxCell id="0" />
        <mxCell id="1" parent="0" />
        <mxCell id="bAiP4KHR74KNPhgdsdUb-3" value="" style="edgeStyle=orthogonalEdgeStyle;rounded=0;orthogonalLoop=1;jettySize=auto;html=1;" edge="1" parent="1" source="bAiP4KHR74KNPhgdsdUb-1" target="bAiP4KHR74KNPhgdsdUb-2">
          <mxGeometry relative="1" as="geometry" />
        </mxCell>
        <mxCell id="bAiP4KHR74KNPhgdsdUb-1" value="Inicio" style="ellipse;whiteSpace=wrap;html=1;" vertex="1" parent="1">
          <mxGeometry x="167.5" y="20" width="70" height="40" as="geometry" />
        </mxCell>
        <mxCell id="bAiP4KHR74KNPhgdsdUb-5" value="" style="edgeStyle=orthogonalEdgeStyle;rounded=0;orthogonalLoop=1;jettySize=auto;html=1;" edge="1" parent="1" source="bAiP4KHR74KNPhgdsdUb-2" target="bAiP4KHR74KNPhgdsdUb-4">
          <mxGeometry relative="1" as="geometry" />
        </mxCell>
        <mxCell id="bAiP4KHR74KNPhgdsdUb-2" value="srand(time(NULL))" style="whiteSpace=wrap;html=1;" vertex="1" parent="1">
          <mxGeometry x="145" y="90" width="115" height="30" as="geometry" />
        </mxCell>
        <mxCell id="bAiP4KHR74KNPhgdsdUb-7" value="" style="edgeStyle=orthogonalEdgeStyle;rounded=0;orthogonalLoop=1;jettySize=auto;html=1;" edge="1" parent="1" source="bAiP4KHR74KNPhgdsdUb-4" target="bAiP4KHR74KNPhgdsdUb-6">
          <mxGeometry relative="1" as="geometry" />
        </mxCell>
        <mxCell id="bAiP4KHR74KNPhgdsdUb-4" value="&amp;nbsp;inicializar(&amp;amp;colanumeros)" style="shape=step;perimeter=stepPerimeter;whiteSpace=wrap;html=1;fixedSize=1;size=15;" vertex="1" parent="1">
          <mxGeometry x="120" y="140" width="165" height="40" as="geometry" />
        </mxCell>
        <mxCell id="bAiP4KHR74KNPhgdsdUb-11" value="" style="edgeStyle=orthogonalEdgeStyle;rounded=0;orthogonalLoop=1;jettySize=auto;html=1;" edge="1" parent="1" source="bAiP4KHR74KNPhgdsdUb-6" target="bAiP4KHR74KNPhgdsdUb-10">
          <mxGeometry relative="1" as="geometry" />
        </mxCell>
        <mxCell id="bAiP4KHR74KNPhgdsdUb-6" value="inicializar(&amp;amp;cola_negativa)" style="shape=step;perimeter=stepPerimeter;whiteSpace=wrap;html=1;fixedSize=1;" vertex="1" parent="1">
          <mxGeometry x="108.75" y="200" width="187.5" height="40" as="geometry" />
        </mxCell>
        <mxCell id="bAiP4KHR74KNPhgdsdUb-13" value="" style="edgeStyle=orthogonalEdgeStyle;rounded=0;orthogonalLoop=1;jettySize=auto;html=1;" edge="1" parent="1" source="bAiP4KHR74KNPhgdsdUb-10" target="bAiP4KHR74KNPhgdsdUb-12">
          <mxGeometry relative="1" as="geometry" />
        </mxCell>
        <mxCell id="bAiP4KHR74KNPhgdsdUb-10" value="i = 0" style="whiteSpace=wrap;html=1;" vertex="1" parent="1">
          <mxGeometry x="180" y="260" width="45" height="20" as="geometry" />
        </mxCell>
        <mxCell id="bAiP4KHR74KNPhgdsdUb-15" value="" style="edgeStyle=orthogonalEdgeStyle;rounded=0;orthogonalLoop=1;jettySize=auto;html=1;" edge="1" parent="1" source="bAiP4KHR74KNPhgdsdUb-12" target="bAiP4KHR74KNPhgdsdUb-14">
          <mxGeometry relative="1" as="geometry" />
        </mxCell>
        <mxCell id="bAiP4KHR74KNPhgdsdUb-20" value="" style="edgeStyle=orthogonalEdgeStyle;rounded=0;orthogonalLoop=1;jettySize=auto;html=1;" edge="1" parent="1" source="bAiP4KHR74KNPhgdsdUb-12" target="bAiP4KHR74KNPhgdsdUb-19">
          <mxGeometry relative="1" as="geometry">
            <Array as="points">
              <mxPoint x="330" y="350" />
              <mxPoint x="330" y="570" />
              <mxPoint x="203" y="570" />
            </Array>
          </mxGeometry>
        </mxCell>
        <mxCell id="bAiP4KHR74KNPhgdsdUb-12" value="i &amp;lt; 100" style="rhombus;whiteSpace=wrap;html=1;" vertex="1" parent="1">
          <mxGeometry x="162.5" y="310" width="80" height="80" as="geometry" />
        </mxCell>
        <mxCell id="bAiP4KHR74KNPhgdsdUb-17" value="" style="edgeStyle=orthogonalEdgeStyle;rounded=0;orthogonalLoop=1;jettySize=auto;html=1;" edge="1" parent="1" source="bAiP4KHR74KNPhgdsdUb-14" target="bAiP4KHR74KNPhgdsdUb-16">
          <mxGeometry relative="1" as="geometry" />
        </mxCell>
        <mxCell id="bAiP4KHR74KNPhgdsdUb-14" value="&amp;nbsp;num = min + rand() % (max - min + 1)" style="whiteSpace=wrap;html=1;" vertex="1" parent="1">
          <mxGeometry x="135" y="420" width="135" height="40" as="geometry" />
        </mxCell>
        <mxCell id="bAiP4KHR74KNPhgdsdUb-18" style="edgeStyle=orthogonalEdgeStyle;rounded=0;orthogonalLoop=1;jettySize=auto;html=1;" edge="1" parent="1" source="bAiP4KHR74KNPhgdsdUb-16">
          <mxGeometry relative="1" as="geometry">
            <mxPoint x="190" y="290" as="targetPoint" />
            <Array as="points">
              <mxPoint x="203" y="550" />
              <mxPoint x="90" y="550" />
              <mxPoint x="90" y="290" />
            </Array>
          </mxGeometry>
        </mxCell>
        <mxCell id="bAiP4KHR74KNPhgdsdUb-16" value="cola_insertar(Cola *colanumeros, int valor)" style="shape=step;perimeter=stepPerimeter;whiteSpace=wrap;html=1;fixedSize=1;size=7.5;" vertex="1" parent="1">
          <mxGeometry x="98.75" y="485" width="207.5" height="50" as="geometry" />
        </mxCell>
        <mxCell id="bAiP4KHR74KNPhgdsdUb-22" value="" style="edgeStyle=orthogonalEdgeStyle;rounded=0;orthogonalLoop=1;jettySize=auto;html=1;exitX=0.5;exitY=0.833;exitDx=0;exitDy=0;exitPerimeter=0;" edge="1" parent="1" source="bAiP4KHR74KNPhgdsdUb-19" target="bAiP4KHR74KNPhgdsdUb-21">
          <mxGeometry relative="1" as="geometry" />
        </mxCell>
        <mxCell id="bAiP4KHR74KNPhgdsdUb-19" value="&quot;Cola de numeros: \n&quot;" style="shape=document;whiteSpace=wrap;html=1;boundedLbl=1;" vertex="1" parent="1">
          <mxGeometry x="133.75" y="600" width="137.5" height="60" as="geometry" />
        </mxCell>
        <mxCell id="bAiP4KHR74KNPhgdsdUb-24" value="" style="edgeStyle=orthogonalEdgeStyle;rounded=0;orthogonalLoop=1;jettySize=auto;html=1;" edge="1" parent="1" source="bAiP4KHR74KNPhgdsdUb-21" target="bAiP4KHR74KNPhgdsdUb-23">
          <mxGeometry relative="1" as="geometry" />
        </mxCell>
        <mxCell id="bAiP4KHR74KNPhgdsdUb-21" value="imprimir(&amp;amp;colanumeros)" style="shape=step;perimeter=stepPerimeter;whiteSpace=wrap;html=1;fixedSize=1;size=7.5;" vertex="1" parent="1">
          <mxGeometry x="123.75" y="690" width="157.5" height="50" as="geometry" />
        </mxCell>
        <mxCell id="bAiP4KHR74KNPhgdsdUb-26" value="" style="edgeStyle=orthogonalEdgeStyle;rounded=0;orthogonalLoop=1;jettySize=auto;html=1;" edge="1" parent="1" source="bAiP4KHR74KNPhgdsdUb-23" target="bAiP4KHR74KNPhgdsdUb-25">
          <mxGeometry relative="1" as="geometry" />
        </mxCell>
        <mxCell id="bAiP4KHR74KNPhgdsdUb-23" value="&amp;nbsp;negativos(&amp;amp;colanumeros, &amp;amp;cola_negativa)" style="shape=step;perimeter=stepPerimeter;whiteSpace=wrap;html=1;fixedSize=1;size=17.5;" vertex="1" parent="1">
          <mxGeometry x="113.75" y="770" width="177.5" height="40" as="geometry" />
        </mxCell>
        <mxCell id="bAiP4KHR74KNPhgdsdUb-28" value="" style="edgeStyle=orthogonalEdgeStyle;rounded=0;orthogonalLoop=1;jettySize=auto;html=1;exitX=0.5;exitY=0.843;exitDx=0;exitDy=0;exitPerimeter=0;" edge="1" parent="1" source="bAiP4KHR74KNPhgdsdUb-25" target="bAiP4KHR74KNPhgdsdUb-27">
          <mxGeometry relative="1" as="geometry" />
        </mxCell>
        <mxCell id="bAiP4KHR74KNPhgdsdUb-25" value="&quot;Cola con numeros negativos:\n&quot;" style="shape=document;whiteSpace=wrap;html=1;boundedLbl=1;" vertex="1" parent="1">
          <mxGeometry x="128.75" y="840" width="147.5" height="50" as="geometry" />
        </mxCell>
        <mxCell id="bAiP4KHR74KNPhgdsdUb-30" value="" style="edgeStyle=orthogonalEdgeStyle;rounded=0;orthogonalLoop=1;jettySize=auto;html=1;" edge="1" parent="1" source="bAiP4KHR74KNPhgdsdUb-27" target="bAiP4KHR74KNPhgdsdUb-29">
          <mxGeometry relative="1" as="geometry" />
        </mxCell>
        <mxCell id="bAiP4KHR74KNPhgdsdUb-27" value="return 0" style="whiteSpace=wrap;html=1;" vertex="1" parent="1">
          <mxGeometry x="158.75" y="920" width="87.5" height="25" as="geometry" />
        </mxCell>
        <mxCell id="bAiP4KHR74KNPhgdsdUb-29" value="Final" style="ellipse;whiteSpace=wrap;html=1;" vertex="1" parent="1">
          <mxGeometry x="168.75" y="970" width="67.5" height="40" as="geometry" />
        </mxCell>
        <mxCell id="bAiP4KHR74KNPhgdsdUb-33" value="" style="edgeStyle=orthogonalEdgeStyle;rounded=0;orthogonalLoop=1;jettySize=auto;html=1;" edge="1" parent="1" source="bAiP4KHR74KNPhgdsdUb-31" target="bAiP4KHR74KNPhgdsdUb-32">
          <mxGeometry relative="1" as="geometry" />
        </mxCell>
        <mxCell id="bAiP4KHR74KNPhgdsdUb-31" value="inicializar(Cola * cola_actual)" style="shape=step;perimeter=stepPerimeter;whiteSpace=wrap;html=1;fixedSize=1;size=15;" vertex="1" parent="1">
          <mxGeometry x="450" y="20" width="190" height="40" as="geometry" />
        </mxCell>
        <mxCell id="bAiP4KHR74KNPhgdsdUb-35" value="" style="edgeStyle=orthogonalEdgeStyle;rounded=0;orthogonalLoop=1;jettySize=auto;html=1;" edge="1" parent="1" source="bAiP4KHR74KNPhgdsdUb-32" target="bAiP4KHR74KNPhgdsdUb-34">
          <mxGeometry relative="1" as="geometry" />
        </mxCell>
        <mxCell id="bAiP4KHR74KNPhgdsdUb-32" value="&lt;div&gt;cola_actual -&amp;gt; frente = NULL;&lt;/div&gt;&lt;div&gt;&amp;nbsp; &amp;nbsp; cola_actual -&amp;gt; final = NULL;&lt;/div&gt;" style="whiteSpace=wrap;html=1;" vertex="1" parent="1">
          <mxGeometry x="452.5" y="85" width="185" height="40" as="geometry" />
        </mxCell>
        <mxCell id="bAiP4KHR74KNPhgdsdUb-34" value="Fin" style="ellipse;whiteSpace=wrap;html=1;" vertex="1" parent="1">
          <mxGeometry x="500" y="160" width="90" height="40" as="geometry" />
        </mxCell>
        <mxCell id="bAiP4KHR74KNPhgdsdUb-40" value="" style="edgeStyle=orthogonalEdgeStyle;rounded=0;orthogonalLoop=1;jettySize=auto;html=1;" edge="1" parent="1" source="bAiP4KHR74KNPhgdsdUb-37" target="bAiP4KHR74KNPhgdsdUb-39">
          <mxGeometry relative="1" as="geometry" />
        </mxCell>
        <mxCell id="bAiP4KHR74KNPhgdsdUb-37" value="cola_insertar(Cola *colanumeros, int valor)" style="shape=step;perimeter=stepPerimeter;whiteSpace=wrap;html=1;fixedSize=1;size=10;" vertex="1" parent="1">
          <mxGeometry x="715" y="20" width="250" height="30" as="geometry" />
        </mxCell>
        <mxCell id="bAiP4KHR74KNPhgdsdUb-42" value="" style="edgeStyle=orthogonalEdgeStyle;rounded=0;orthogonalLoop=1;jettySize=auto;html=1;" edge="1" parent="1" source="bAiP4KHR74KNPhgdsdUb-39" target="bAiP4KHR74KNPhgdsdUb-41">
          <mxGeometry relative="1" as="geometry" />
        </mxCell>
        <mxCell id="bAiP4KHR74KNPhgdsdUb-39" value="nuevo = (Nodo*)malloc(sizeof(Nodo))" style="whiteSpace=wrap;html=1;" vertex="1" parent="1">
          <mxGeometry x="755" y="90" width="170" height="40" as="geometry" />
        </mxCell>
        <mxCell id="bAiP4KHR74KNPhgdsdUb-44" value="" style="edgeStyle=orthogonalEdgeStyle;rounded=0;orthogonalLoop=1;jettySize=auto;html=1;" edge="1" parent="1" source="bAiP4KHR74KNPhgdsdUb-41" target="bAiP4KHR74KNPhgdsdUb-43">
          <mxGeometry relative="1" as="geometry" />
        </mxCell>
        <mxCell id="bAiP4KHR74KNPhgdsdUb-52" style="edgeStyle=orthogonalEdgeStyle;rounded=0;orthogonalLoop=1;jettySize=auto;html=1;" edge="1" parent="1" source="bAiP4KHR74KNPhgdsdUb-41">
          <mxGeometry relative="1" as="geometry">
            <mxPoint x="850" y="380" as="targetPoint" />
            <Array as="points">
              <mxPoint x="920" y="200" />
              <mxPoint x="920" y="380" />
            </Array>
          </mxGeometry>
        </mxCell>
        <mxCell id="bAiP4KHR74KNPhgdsdUb-41" value="nuevo == NULL" style="rhombus;whiteSpace=wrap;html=1;" vertex="1" parent="1">
          <mxGeometry x="800" y="160" width="80" height="80" as="geometry" />
        </mxCell>
        <mxCell id="bAiP4KHR74KNPhgdsdUb-47" value="" style="edgeStyle=orthogonalEdgeStyle;rounded=0;orthogonalLoop=1;jettySize=auto;html=1;exitX=0.495;exitY=0.854;exitDx=0;exitDy=0;exitPerimeter=0;" edge="1" parent="1" source="bAiP4KHR74KNPhgdsdUb-43" target="bAiP4KHR74KNPhgdsdUb-46">
          <mxGeometry relative="1" as="geometry" />
        </mxCell>
        <mxCell id="bAiP4KHR74KNPhgdsdUb-43" value="&quot;Error, no se pudo asignar memoria\n&quot;" style="shape=document;whiteSpace=wrap;html=1;boundedLbl=1;" vertex="1" parent="1">
          <mxGeometry x="780" y="270" width="120" height="60" as="geometry" />
        </mxCell>
        <mxCell id="bAiP4KHR74KNPhgdsdUb-49" value="" style="edgeStyle=orthogonalEdgeStyle;rounded=0;orthogonalLoop=1;jettySize=auto;html=1;" edge="1" parent="1" source="bAiP4KHR74KNPhgdsdUb-46" target="bAiP4KHR74KNPhgdsdUb-48">
          <mxGeometry relative="1" as="geometry" />
        </mxCell>
        <mxCell id="bAiP4KHR74KNPhgdsdUb-46" value="exit(1)" style="whiteSpace=wrap;html=1;" vertex="1" parent="1">
          <mxGeometry x="805" y="350" width="70" height="20" as="geometry" />
        </mxCell>
        <mxCell id="bAiP4KHR74KNPhgdsdUb-51" value="" style="edgeStyle=orthogonalEdgeStyle;rounded=0;orthogonalLoop=1;jettySize=auto;html=1;" edge="1" parent="1" source="bAiP4KHR74KNPhgdsdUb-48" target="bAiP4KHR74KNPhgdsdUb-50">
          <mxGeometry relative="1" as="geometry" />
        </mxCell>
        <mxCell id="bAiP4KHR74KNPhgdsdUb-48" value="&amp;nbsp;nuevo -&amp;gt; numero = valor" style="whiteSpace=wrap;html=1;" vertex="1" parent="1">
          <mxGeometry x="770" y="400" width="140" height="30" as="geometry" />
        </mxCell>
        <mxCell id="bAiP4KHR74KNPhgdsdUb-54" value="" style="edgeStyle=orthogonalEdgeStyle;rounded=0;orthogonalLoop=1;jettySize=auto;html=1;" edge="1" parent="1" source="bAiP4KHR74KNPhgdsdUb-50" target="bAiP4KHR74KNPhgdsdUb-53">
          <mxGeometry relative="1" as="geometry" />
        </mxCell>
        <mxCell id="bAiP4KHR74KNPhgdsdUb-50" value="nuevo -&amp;gt; siguiente = NULL" style="whiteSpace=wrap;html=1;" vertex="1" parent="1">
          <mxGeometry x="770" y="450" width="140" height="35" as="geometry" />
        </mxCell>
        <mxCell id="bAiP4KHR74KNPhgdsdUb-56" value="" style="edgeStyle=orthogonalEdgeStyle;rounded=0;orthogonalLoop=1;jettySize=auto;html=1;" edge="1" parent="1" source="bAiP4KHR74KNPhgdsdUb-53" target="bAiP4KHR74KNPhgdsdUb-55">
          <mxGeometry relative="1" as="geometry" />
        </mxCell>
        <mxCell id="bAiP4KHR74KNPhgdsdUb-58" value="" style="edgeStyle=orthogonalEdgeStyle;rounded=0;orthogonalLoop=1;jettySize=auto;html=1;" edge="1" parent="1" source="bAiP4KHR74KNPhgdsdUb-53" target="bAiP4KHR74KNPhgdsdUb-57">
          <mxGeometry relative="1" as="geometry" />
        </mxCell>
        <mxCell id="bAiP4KHR74KNPhgdsdUb-53" value="colanumeros -&amp;gt; frente == NULL" style="rhombus;whiteSpace=wrap;html=1;" vertex="1" parent="1">
          <mxGeometry x="785" y="510" width="110" height="97.5" as="geometry" />
        </mxCell>
        <mxCell id="bAiP4KHR74KNPhgdsdUb-60" value="" style="edgeStyle=orthogonalEdgeStyle;rounded=0;orthogonalLoop=1;jettySize=auto;html=1;" edge="1" parent="1" source="bAiP4KHR74KNPhgdsdUb-55" target="bAiP4KHR74KNPhgdsdUb-59">
          <mxGeometry relative="1" as="geometry" />
        </mxCell>
        <mxCell id="bAiP4KHR74KNPhgdsdUb-55" value="colanumeros -&amp;gt; frente = nuevo" style="whiteSpace=wrap;html=1;" vertex="1" parent="1">
          <mxGeometry x="925" y="620" width="120" height="60" as="geometry" />
        </mxCell>
        <mxCell id="bAiP4KHR74KNPhgdsdUb-62" value="" style="edgeStyle=orthogonalEdgeStyle;rounded=0;orthogonalLoop=1;jettySize=auto;html=1;" edge="1" parent="1" source="bAiP4KHR74KNPhgdsdUb-57" target="bAiP4KHR74KNPhgdsdUb-61">
          <mxGeometry relative="1" as="geometry" />
        </mxCell>
        <mxCell id="bAiP4KHR74KNPhgdsdUb-57" value="colanumeros -&amp;gt; final -&amp;gt; siguiente = nuevo" style="whiteSpace=wrap;html=1;" vertex="1" parent="1">
          <mxGeometry x="590" y="620" width="120" height="60" as="geometry" />
        </mxCell>
        <mxCell id="bAiP4KHR74KNPhgdsdUb-65" style="edgeStyle=orthogonalEdgeStyle;rounded=0;orthogonalLoop=1;jettySize=auto;html=1;entryX=0.5;entryY=0;entryDx=0;entryDy=0;" edge="1" parent="1" source="bAiP4KHR74KNPhgdsdUb-59" target="bAiP4KHR74KNPhgdsdUb-63">
          <mxGeometry relative="1" as="geometry">
            <mxPoint x="840" y="810" as="targetPoint" />
            <Array as="points">
              <mxPoint x="985" y="800" />
              <mxPoint x="840" y="800" />
            </Array>
          </mxGeometry>
        </mxCell>
        <mxCell id="bAiP4KHR74KNPhgdsdUb-59" value="&amp;nbsp;colanumeros -&amp;gt; final = nuevo" style="whiteSpace=wrap;html=1;" vertex="1" parent="1">
          <mxGeometry x="922.5" y="710" width="125" height="40" as="geometry" />
        </mxCell>
        <mxCell id="bAiP4KHR74KNPhgdsdUb-69" style="edgeStyle=orthogonalEdgeStyle;rounded=0;orthogonalLoop=1;jettySize=auto;html=1;entryX=0.5;entryY=0;entryDx=0;entryDy=0;" edge="1" parent="1" source="bAiP4KHR74KNPhgdsdUb-61" target="bAiP4KHR74KNPhgdsdUb-63">
          <mxGeometry relative="1" as="geometry">
            <Array as="points">
              <mxPoint x="650" y="800" />
              <mxPoint x="840" y="800" />
            </Array>
          </mxGeometry>
        </mxCell>
        <mxCell id="bAiP4KHR74KNPhgdsdUb-61" value="colanumeros -&amp;gt; final = nuevo" style="whiteSpace=wrap;html=1;" vertex="1" parent="1">
          <mxGeometry x="595" y="710" width="110" height="40" as="geometry" />
        </mxCell>
        <mxCell id="bAiP4KHR74KNPhgdsdUb-63" value="Fin" style="ellipse;whiteSpace=wrap;html=1;" vertex="1" parent="1">
          <mxGeometry x="800" y="860" width="80" height="50" as="geometry" />
        </mxCell>
        <mxCell id="bAiP4KHR74KNPhgdsdUb-66" value="" style="ellipse;whiteSpace=wrap;html=1;aspect=fixed;" vertex="1" parent="1">
          <mxGeometry x="835" y="800" width="10" height="10" as="geometry" />
        </mxCell>
        <mxCell id="bAiP4KHR74KNPhgdsdUb-72" value="" style="edgeStyle=orthogonalEdgeStyle;rounded=0;orthogonalLoop=1;jettySize=auto;html=1;" edge="1" parent="1" source="bAiP4KHR74KNPhgdsdUb-70" target="bAiP4KHR74KNPhgdsdUb-71">
          <mxGeometry relative="1" as="geometry" />
        </mxCell>
        <mxCell id="bAiP4KHR74KNPhgdsdUb-70" value="cola_eliminar(Cola *colanumeros)" style="shape=step;perimeter=stepPerimeter;whiteSpace=wrap;html=1;fixedSize=1;size=10;" vertex="1" parent="1">
          <mxGeometry x="1130" y="15" width="230" height="50" as="geometry" />
        </mxCell>
        <mxCell id="bAiP4KHR74KNPhgdsdUb-74" value="" style="edgeStyle=orthogonalEdgeStyle;rounded=0;orthogonalLoop=1;jettySize=auto;html=1;" edge="1" parent="1" source="bAiP4KHR74KNPhgdsdUb-71" target="bAiP4KHR74KNPhgdsdUb-73">
          <mxGeometry relative="1" as="geometry" />
        </mxCell>
        <mxCell id="bAiP4KHR74KNPhgdsdUb-71" value="temporal = colanumeros -&amp;gt; frente" style="whiteSpace=wrap;html=1;" vertex="1" parent="1">
          <mxGeometry x="1161.25" y="90" width="167.5" height="40" as="geometry" />
        </mxCell>
        <mxCell id="bAiP4KHR74KNPhgdsdUb-76" value="" style="edgeStyle=orthogonalEdgeStyle;rounded=0;orthogonalLoop=1;jettySize=auto;html=1;" edge="1" parent="1" source="bAiP4KHR74KNPhgdsdUb-73" target="bAiP4KHR74KNPhgdsdUb-75">
          <mxGeometry relative="1" as="geometry" />
        </mxCell>
        <mxCell id="bAiP4KHR74KNPhgdsdUb-73" value="valor = temporal -&amp;gt; numero" style="whiteSpace=wrap;html=1;" vertex="1" parent="1">
          <mxGeometry x="1177.5" y="160" width="135" height="30" as="geometry" />
        </mxCell>
        <mxCell id="bAiP4KHR74KNPhgdsdUb-78" value="" style="edgeStyle=orthogonalEdgeStyle;rounded=0;orthogonalLoop=1;jettySize=auto;html=1;" edge="1" parent="1" source="bAiP4KHR74KNPhgdsdUb-75" target="bAiP4KHR74KNPhgdsdUb-77">
          <mxGeometry relative="1" as="geometry" />
        </mxCell>
        <mxCell id="bAiP4KHR74KNPhgdsdUb-81" style="edgeStyle=orthogonalEdgeStyle;rounded=0;orthogonalLoop=1;jettySize=auto;html=1;" edge="1" parent="1" source="bAiP4KHR74KNPhgdsdUb-75">
          <mxGeometry relative="1" as="geometry">
            <mxPoint x="1250" y="390" as="targetPoint" />
            <Array as="points">
              <mxPoint x="1330" y="263" />
              <mxPoint x="1330" y="390" />
            </Array>
          </mxGeometry>
        </mxCell>
        <mxCell id="bAiP4KHR74KNPhgdsdUb-75" value="colanumeros -&amp;gt; frente == NULL" style="rhombus;whiteSpace=wrap;html=1;" vertex="1" parent="1">
          <mxGeometry x="1187.5" y="220" width="115" height="85" as="geometry" />
        </mxCell>
        <mxCell id="bAiP4KHR74KNPhgdsdUb-80" value="" style="edgeStyle=orthogonalEdgeStyle;rounded=0;orthogonalLoop=1;jettySize=auto;html=1;" edge="1" parent="1" source="bAiP4KHR74KNPhgdsdUb-77" target="bAiP4KHR74KNPhgdsdUb-79">
          <mxGeometry relative="1" as="geometry" />
        </mxCell>
        <mxCell id="bAiP4KHR74KNPhgdsdUb-77" value="colanumeros -&amp;gt; final = NULL" style="whiteSpace=wrap;html=1;" vertex="1" parent="1">
          <mxGeometry x="1177.5" y="330" width="135" height="40" as="geometry" />
        </mxCell>
        <mxCell id="bAiP4KHR74KNPhgdsdUb-83" value="" style="edgeStyle=orthogonalEdgeStyle;rounded=0;orthogonalLoop=1;jettySize=auto;html=1;" edge="1" parent="1" source="bAiP4KHR74KNPhgdsdUb-79" target="bAiP4KHR74KNPhgdsdUb-82">
          <mxGeometry relative="1" as="geometry" />
        </mxCell>
        <mxCell id="bAiP4KHR74KNPhgdsdUb-79" value="free(temporal)" style="whiteSpace=wrap;html=1;" vertex="1" parent="1">
          <mxGeometry x="1197.5" y="405" width="95" height="20" as="geometry" />
        </mxCell>
        <mxCell id="bAiP4KHR74KNPhgdsdUb-85" value="" style="edgeStyle=orthogonalEdgeStyle;rounded=0;orthogonalLoop=1;jettySize=auto;html=1;" edge="1" parent="1" source="bAiP4KHR74KNPhgdsdUb-82" target="bAiP4KHR74KNPhgdsdUb-84">
          <mxGeometry relative="1" as="geometry" />
        </mxCell>
        <mxCell id="bAiP4KHR74KNPhgdsdUb-82" value="return valor" style="whiteSpace=wrap;html=1;" vertex="1" parent="1">
          <mxGeometry x="1202.5" y="450" width="85" height="25" as="geometry" />
        </mxCell>
        <mxCell id="bAiP4KHR74KNPhgdsdUb-84" value="Fin" style="ellipse;whiteSpace=wrap;html=1;" vertex="1" parent="1">
          <mxGeometry x="1210" y="510" width="70" height="40" as="geometry" />
        </mxCell>
        <mxCell id="bAiP4KHR74KNPhgdsdUb-90" value="" style="edgeStyle=orthogonalEdgeStyle;rounded=0;orthogonalLoop=1;jettySize=auto;html=1;" edge="1" parent="1" source="bAiP4KHR74KNPhgdsdUb-86" target="bAiP4KHR74KNPhgdsdUb-89">
          <mxGeometry relative="1" as="geometry" />
        </mxCell>
        <mxCell id="bAiP4KHR74KNPhgdsdUb-86" value="imprimir(Cola *colausada)" style="shape=step;perimeter=stepPerimeter;whiteSpace=wrap;html=1;fixedSize=1;size=10;" vertex="1" parent="1">
          <mxGeometry x="1470" y="20" width="170" height="30" as="geometry" />
        </mxCell>
        <mxCell id="bAiP4KHR74KNPhgdsdUb-92" value="" style="edgeStyle=orthogonalEdgeStyle;rounded=0;orthogonalLoop=1;jettySize=auto;html=1;" edge="1" parent="1" source="bAiP4KHR74KNPhgdsdUb-89" target="bAiP4KHR74KNPhgdsdUb-91">
          <mxGeometry relative="1" as="geometry" />
        </mxCell>
        <mxCell id="bAiP4KHR74KNPhgdsdUb-97" style="edgeStyle=orthogonalEdgeStyle;rounded=0;orthogonalLoop=1;jettySize=auto;html=1;" edge="1" parent="1" source="bAiP4KHR74KNPhgdsdUb-89">
          <mxGeometry relative="1" as="geometry">
            <mxPoint x="1560" y="310" as="targetPoint" />
            <Array as="points">
              <mxPoint x="1640" y="127" />
              <mxPoint x="1640" y="310" />
            </Array>
          </mxGeometry>
        </mxCell>
        <mxCell id="bAiP4KHR74KNPhgdsdUb-89" value="colausada -&amp;gt; frente == NULL" style="rhombus;whiteSpace=wrap;html=1;" vertex="1" parent="1">
          <mxGeometry x="1502.5" y="80" width="105" height="95" as="geometry" />
        </mxCell>
        <mxCell id="bAiP4KHR74KNPhgdsdUb-94" value="" style="edgeStyle=orthogonalEdgeStyle;rounded=0;orthogonalLoop=1;jettySize=auto;html=1;exitX=0.504;exitY=0.896;exitDx=0;exitDy=0;exitPerimeter=0;" edge="1" parent="1" source="bAiP4KHR74KNPhgdsdUb-91" target="bAiP4KHR74KNPhgdsdUb-93">
          <mxGeometry relative="1" as="geometry" />
        </mxCell>
        <mxCell id="bAiP4KHR74KNPhgdsdUb-91" value="&quot;La cola esta vacia\n&quot;" style="shape=document;whiteSpace=wrap;html=1;boundedLbl=1;" vertex="1" parent="1">
          <mxGeometry x="1487.5" y="202.5" width="135" height="37.5" as="geometry" />
        </mxCell>
        <mxCell id="bAiP4KHR74KNPhgdsdUb-96" value="" style="edgeStyle=orthogonalEdgeStyle;rounded=0;orthogonalLoop=1;jettySize=auto;html=1;" edge="1" parent="1" source="bAiP4KHR74KNPhgdsdUb-93" target="bAiP4KHR74KNPhgdsdUb-95">
          <mxGeometry relative="1" as="geometry" />
        </mxCell>
        <mxCell id="bAiP4KHR74KNPhgdsdUb-93" value="exit(1)" style="whiteSpace=wrap;html=1;" vertex="1" parent="1">
          <mxGeometry x="1517.5" y="260" width="75" height="31.25" as="geometry" />
        </mxCell>
        <mxCell id="bAiP4KHR74KNPhgdsdUb-99" value="" style="edgeStyle=orthogonalEdgeStyle;rounded=0;orthogonalLoop=1;jettySize=auto;html=1;" edge="1" parent="1" source="bAiP4KHR74KNPhgdsdUb-95" target="bAiP4KHR74KNPhgdsdUb-98">
          <mxGeometry relative="1" as="geometry" />
        </mxCell>
        <mxCell id="bAiP4KHR74KNPhgdsdUb-95" value="actual = colausada -&amp;gt; frente" style="whiteSpace=wrap;html=1;" vertex="1" parent="1">
          <mxGeometry x="1487.5" y="330" width="135" height="33.13" as="geometry" />
        </mxCell>
        <mxCell id="bAiP4KHR74KNPhgdsdUb-101" value="" style="edgeStyle=orthogonalEdgeStyle;rounded=0;orthogonalLoop=1;jettySize=auto;html=1;" edge="1" parent="1" source="bAiP4KHR74KNPhgdsdUb-98" target="bAiP4KHR74KNPhgdsdUb-100">
          <mxGeometry relative="1" as="geometry" />
        </mxCell>
        <mxCell id="bAiP4KHR74KNPhgdsdUb-113" style="edgeStyle=orthogonalEdgeStyle;rounded=0;orthogonalLoop=1;jettySize=auto;html=1;entryX=0.5;entryY=0;entryDx=0;entryDy=0;" edge="1" parent="1" source="bAiP4KHR74KNPhgdsdUb-98" target="bAiP4KHR74KNPhgdsdUb-104">
          <mxGeometry relative="1" as="geometry">
            <Array as="points">
              <mxPoint x="1640" y="430" />
              <mxPoint x="1640" y="640" />
              <mxPoint x="1555" y="640" />
            </Array>
          </mxGeometry>
        </mxCell>
        <mxCell id="bAiP4KHR74KNPhgdsdUb-98" value="actual != NULL" style="rhombus;whiteSpace=wrap;html=1;" vertex="1" parent="1">
          <mxGeometry x="1515" y="390.005" width="80" height="80" as="geometry" />
        </mxCell>
        <mxCell id="bAiP4KHR74KNPhgdsdUb-103" value="" style="edgeStyle=orthogonalEdgeStyle;rounded=0;orthogonalLoop=1;jettySize=auto;html=1;exitX=0.5;exitY=0.8;exitDx=0;exitDy=0;exitPerimeter=0;" edge="1" parent="1" source="bAiP4KHR74KNPhgdsdUb-100" target="bAiP4KHR74KNPhgdsdUb-102">
          <mxGeometry relative="1" as="geometry" />
        </mxCell>
        <mxCell id="bAiP4KHR74KNPhgdsdUb-100" value="&quot;[%d], &quot;, actual -&amp;gt; numero" style="shape=document;whiteSpace=wrap;html=1;boundedLbl=1;" vertex="1" parent="1">
          <mxGeometry x="1487.5" y="490" width="135" height="50" as="geometry" />
        </mxCell>
        <mxCell id="bAiP4KHR74KNPhgdsdUb-112" style="edgeStyle=orthogonalEdgeStyle;rounded=0;orthogonalLoop=1;jettySize=auto;html=1;" edge="1" parent="1" source="bAiP4KHR74KNPhgdsdUb-102">
          <mxGeometry relative="1" as="geometry">
            <mxPoint x="1540" y="380" as="targetPoint" />
            <Array as="points">
              <mxPoint x="1555" y="620" />
              <mxPoint x="1460" y="620" />
              <mxPoint x="1460" y="380" />
            </Array>
          </mxGeometry>
        </mxCell>
        <mxCell id="bAiP4KHR74KNPhgdsdUb-102" value="actual = actual -&amp;gt; siguiente" style="whiteSpace=wrap;html=1;" vertex="1" parent="1">
          <mxGeometry x="1492.5" y="565" width="125" height="35" as="geometry" />
        </mxCell>
        <mxCell id="bAiP4KHR74KNPhgdsdUb-114" value="" style="edgeStyle=orthogonalEdgeStyle;rounded=0;orthogonalLoop=1;jettySize=auto;html=1;exitX=0.504;exitY=0.844;exitDx=0;exitDy=0;exitPerimeter=0;" edge="1" parent="1" source="bAiP4KHR74KNPhgdsdUb-104" target="bAiP4KHR74KNPhgdsdUb-107">
          <mxGeometry relative="1" as="geometry" />
        </mxCell>
        <mxCell id="bAiP4KHR74KNPhgdsdUb-104" value="&quot;\n\n&quot;" style="shape=document;whiteSpace=wrap;html=1;boundedLbl=1;" vertex="1" parent="1">
          <mxGeometry x="1517.5" y="660" width="75" height="42.5" as="geometry" />
        </mxCell>
        <mxCell id="bAiP4KHR74KNPhgdsdUb-107" value="Fin" style="ellipse;whiteSpace=wrap;html=1;" vertex="1" parent="1">
          <mxGeometry x="1525" y="730" width="60" height="40" as="geometry" />
        </mxCell>
        <mxCell id="bAiP4KHR74KNPhgdsdUb-111" value="" style="edgeStyle=orthogonalEdgeStyle;rounded=0;orthogonalLoop=1;jettySize=auto;html=1;" edge="1" parent="1" source="bAiP4KHR74KNPhgdsdUb-109" target="bAiP4KHR74KNPhgdsdUb-110">
          <mxGeometry relative="1" as="geometry" />
        </mxCell>
        <mxCell id="bAiP4KHR74KNPhgdsdUb-109" value="negativos(Cola *colanumeros, Cola *colanegativa)" style="shape=step;perimeter=stepPerimeter;whiteSpace=wrap;html=1;fixedSize=1;size=10;" vertex="1" parent="1">
          <mxGeometry x="1760" y="15" width="220" height="40" as="geometry" />
        </mxCell>
        <mxCell id="bAiP4KHR74KNPhgdsdUb-117" value="" style="edgeStyle=orthogonalEdgeStyle;rounded=0;orthogonalLoop=1;jettySize=auto;html=1;" edge="1" parent="1" source="bAiP4KHR74KNPhgdsdUb-110" target="bAiP4KHR74KNPhgdsdUb-116">
          <mxGeometry relative="1" as="geometry" />
        </mxCell>
        <mxCell id="bAiP4KHR74KNPhgdsdUb-110" value="inicializar(&amp;amp;temporal)" style="shape=step;perimeter=stepPerimeter;whiteSpace=wrap;html=1;fixedSize=1;size=10;" vertex="1" parent="1">
          <mxGeometry x="1800" y="90" width="140" height="25" as="geometry" />
        </mxCell>
        <mxCell id="bAiP4KHR74KNPhgdsdUb-119" value="" style="edgeStyle=orthogonalEdgeStyle;rounded=0;orthogonalLoop=1;jettySize=auto;html=1;" edge="1" parent="1" source="bAiP4KHR74KNPhgdsdUb-116" target="bAiP4KHR74KNPhgdsdUb-118">
          <mxGeometry relative="1" as="geometry" />
        </mxCell>
        <mxCell id="bAiP4KHR74KNPhgdsdUb-131" value="" style="edgeStyle=orthogonalEdgeStyle;rounded=0;orthogonalLoop=1;jettySize=auto;html=1;" edge="1" parent="1" source="bAiP4KHR74KNPhgdsdUb-116" target="bAiP4KHR74KNPhgdsdUb-130">
          <mxGeometry relative="1" as="geometry">
            <Array as="points">
              <mxPoint x="2000" y="199" />
              <mxPoint x="2000" y="630" />
              <mxPoint x="1870" y="630" />
            </Array>
          </mxGeometry>
        </mxCell>
        <mxCell id="bAiP4KHR74KNPhgdsdUb-116" value="!(colanumeros -&amp;gt; frente == NULL)" style="rhombus;whiteSpace=wrap;html=1;" vertex="1" parent="1">
          <mxGeometry x="1810" y="137.5" width="120" height="122.5" as="geometry" />
        </mxCell>
        <mxCell id="bAiP4KHR74KNPhgdsdUb-121" value="" style="edgeStyle=orthogonalEdgeStyle;rounded=0;orthogonalLoop=1;jettySize=auto;html=1;" edge="1" parent="1" source="bAiP4KHR74KNPhgdsdUb-118" target="bAiP4KHR74KNPhgdsdUb-120">
          <mxGeometry relative="1" as="geometry" />
        </mxCell>
        <mxCell id="bAiP4KHR74KNPhgdsdUb-118" value="valor = cola_eliminar(colanumeros)" style="whiteSpace=wrap;html=1;" vertex="1" parent="1">
          <mxGeometry x="1790" y="291.25" width="160" height="38.75" as="geometry" />
        </mxCell>
        <mxCell id="bAiP4KHR74KNPhgdsdUb-125" value="" style="edgeStyle=orthogonalEdgeStyle;rounded=0;orthogonalLoop=1;jettySize=auto;html=1;" edge="1" parent="1" source="bAiP4KHR74KNPhgdsdUb-120" target="bAiP4KHR74KNPhgdsdUb-124">
          <mxGeometry relative="1" as="geometry" />
        </mxCell>
        <mxCell id="bAiP4KHR74KNPhgdsdUb-128" style="edgeStyle=orthogonalEdgeStyle;rounded=0;orthogonalLoop=1;jettySize=auto;html=1;" edge="1" parent="1" source="bAiP4KHR74KNPhgdsdUb-120">
          <mxGeometry relative="1" as="geometry">
            <mxPoint x="1880" y="540" as="targetPoint" />
            <Array as="points">
              <mxPoint x="1960" y="400" />
              <mxPoint x="1960" y="540" />
            </Array>
          </mxGeometry>
        </mxCell>
        <mxCell id="bAiP4KHR74KNPhgdsdUb-120" value="valor &amp;lt; 0" style="rhombus;whiteSpace=wrap;html=1;" vertex="1" parent="1">
          <mxGeometry x="1830" y="360.005" width="80" height="80" as="geometry" />
        </mxCell>
        <mxCell id="bAiP4KHR74KNPhgdsdUb-127" value="" style="edgeStyle=orthogonalEdgeStyle;rounded=0;orthogonalLoop=1;jettySize=auto;html=1;" edge="1" parent="1" source="bAiP4KHR74KNPhgdsdUb-124" target="bAiP4KHR74KNPhgdsdUb-126">
          <mxGeometry relative="1" as="geometry" />
        </mxCell>
        <mxCell id="bAiP4KHR74KNPhgdsdUb-124" value="cola_insertar(colanegativa, valor)" style="shape=step;perimeter=stepPerimeter;whiteSpace=wrap;html=1;fixedSize=1;size=10;" vertex="1" parent="1">
          <mxGeometry x="1785" y="470" width="170" height="40" as="geometry" />
        </mxCell>
        <mxCell id="bAiP4KHR74KNPhgdsdUb-129" style="edgeStyle=orthogonalEdgeStyle;rounded=0;orthogonalLoop=1;jettySize=auto;html=1;" edge="1" parent="1" source="bAiP4KHR74KNPhgdsdUb-126">
          <mxGeometry relative="1" as="geometry">
            <mxPoint x="1850" y="130" as="targetPoint" />
            <Array as="points">
              <mxPoint x="1870" y="610" />
              <mxPoint x="1760" y="610" />
              <mxPoint x="1760" y="130" />
            </Array>
          </mxGeometry>
        </mxCell>
        <mxCell id="bAiP4KHR74KNPhgdsdUb-126" value="cola_insertar(&amp;amp;temporal, valor)" style="shape=step;perimeter=stepPerimeter;whiteSpace=wrap;html=1;fixedSize=1;size=10;" vertex="1" parent="1">
          <mxGeometry x="1775" y="550" width="190" height="40" as="geometry" />
        </mxCell>
        <mxCell id="bAiP4KHR74KNPhgdsdUb-133" value="" style="edgeStyle=orthogonalEdgeStyle;rounded=0;orthogonalLoop=1;jettySize=auto;html=1;" edge="1" parent="1" source="bAiP4KHR74KNPhgdsdUb-130" target="bAiP4KHR74KNPhgdsdUb-132">
          <mxGeometry relative="1" as="geometry" />
        </mxCell>
        <mxCell id="bAiP4KHR74KNPhgdsdUb-136" style="edgeStyle=orthogonalEdgeStyle;rounded=0;orthogonalLoop=1;jettySize=auto;html=1;" edge="1" parent="1" source="bAiP4KHR74KNPhgdsdUb-130" target="bAiP4KHR74KNPhgdsdUb-135">
          <mxGeometry relative="1" as="geometry">
            <Array as="points">
              <mxPoint x="1980" y="705" />
              <mxPoint x="1980" y="880" />
              <mxPoint x="1870" y="880" />
            </Array>
          </mxGeometry>
        </mxCell>
        <mxCell id="bAiP4KHR74KNPhgdsdUb-130" value="!(colanumeros -&amp;gt; frente == NULL)" style="rhombus;whiteSpace=wrap;html=1;" vertex="1" parent="1">
          <mxGeometry x="1807.5" y="650" width="125" height="110" as="geometry" />
        </mxCell>
        <mxCell id="bAiP4KHR74KNPhgdsdUb-134" style="edgeStyle=orthogonalEdgeStyle;rounded=0;orthogonalLoop=1;jettySize=auto;html=1;" edge="1" parent="1" source="bAiP4KHR74KNPhgdsdUb-132">
          <mxGeometry relative="1" as="geometry">
            <mxPoint x="1850" y="640" as="targetPoint" />
            <Array as="points">
              <mxPoint x="1870" y="860" />
              <mxPoint x="1760" y="860" />
              <mxPoint x="1760" y="640" />
            </Array>
          </mxGeometry>
        </mxCell>
        <mxCell id="bAiP4KHR74KNPhgdsdUb-132" value="cola_insertar(colanumeros, cola_eliminar(&amp;amp;temporal))" style="shape=step;perimeter=stepPerimeter;whiteSpace=wrap;html=1;fixedSize=1;size=10;" vertex="1" parent="1">
          <mxGeometry x="1780" y="795" width="180" height="45" as="geometry" />
        </mxCell>
        <mxCell id="bAiP4KHR74KNPhgdsdUb-135" value="Fin" style="ellipse;whiteSpace=wrap;html=1;" vertex="1" parent="1">
          <mxGeometry x="1825" y="910" width="90" height="40" as="geometry" />
        </mxCell>
      </root>
    </mxGraphModel>
  </diagram>
</mxfile>
